<svg xmlns="http://www.w3.org/2000/svg" viewBox="0 0 32 32" fill="none">
  <defs>
    <linearGradient id="bg" x1="0" y1="0" x2="32" y2="32" gradientUnits="userSpaceOnUse">
      <stop offset="0%" stop-color="#6366f1"/>
      <stop offset="100%" stop-color="#8b5cf6"/>
    </linearGradient>
  </defs>
  <rect width="32" height="32" rx="7" fill="url(#bg)"/>
  <!-- Simplified brackets -->
  <path d="M10 9C10 9 8 9 8 11L8 14.5C8 14.5 8 16 6 16C8 16 8 17.5 8 17.5L8 21C8 23 10 23 10 23" stroke="#fff" stroke-width="2" stroke-linecap="round" fill="none"/>
  <path d="M22 9C22 9 24 9 24 11L24 14.5C24 14.5 24 16 26 16C24 16 24 17.5 24 17.5L24 21C24 23 22 23 22 23" stroke="#fff" stroke-width="2" stroke-linecap="round" fill="none"/>
  <!-- Center dot -->
  <circle cx="16" cy="16" r="2.5" fill="#fff"/>
</svg>
